# Blender v2.76 (sub 0) OBJ File: ''
# www.blender.org
mtllib pyramid2.mtl
o Cube.001
v 1.000000 -1.000000 1.000000
v -1.000000 -1.000000 1.000000
v -1.000000 -1.000000 -1.000000
v 0.029594 1.000000 -0.029594
v -0.029595 1.000000 -0.029594
v -0.029595 1.000000 0.029595
v 0.029594 1.000000 0.029595
v 1.000000 -1.000000 -1.000000
vt 0.666667 0.500000
vt 1.000000 0.500000
vt 1.000000 0.949845
vt 0.171599 0.005811
vt 0.161734 0.005811
vt 0.161734 0.000000
vt 0.504932 0.500000
vt 0.495067 0.500000
vt 0.333333 0.000000
vt 1.000000 0.000000
vt 0.838266 0.500000
vt 0.828401 0.500000
vt 0.666667 1.000000
vt 0.333333 0.505811
vt 0.000000 0.505811
vt 0.666667 0.949845
vt 0.171599 0.000000
vt 0.666667 0.000000
vt 0.333333 1.000000
vn 0.000000 -1.000000 -0.000000
vn 0.000000 1.000000 0.000000
vn 0.899700 0.436500 0.000000
vn 0.000000 0.436500 0.899700
vn -0.899700 0.436500 0.000000
vn 0.000000 0.436500 -0.899700
usemtl Material.001
s 1
f 1/1/1 2/2/1 3/3/1
f 4/4/2 5/5/2 6/6/2
f 4/7/3 7/8/3 1/9/3
f 1/10/4 7/11/4 6/12/4
f 6/8/5 5/7/5 3/13/5
f 4/4/6 8/14/6 3/15/6
f 8/16/1 1/1/1 3/3/1
f 7/17/2 4/4/2 6/6/2
f 8/18/3 4/7/3 1/9/3
f 2/18/4 1/10/4 6/12/4
f 2/19/5 6/8/5 3/13/5
f 5/5/6 4/4/6 3/15/6
